<svg id="visual" viewBox="0 0 1920 1080" width="1920" height="1080" xmlns="http://www.w3.org/2000/svg" xmlns:xlink="http://www.w3.org/1999/xlink" version="1.1"><rect x="0" y="0" width="1920" height="1080" fill="#173154"></rect><path d="M0 746L40 732C80 718 160 690 240 680.3C320 670.7 400 679.3 480 697.8C560 716.3 640 744.7 720 750.3C800 756 880 739 960 726.5C1040 714 1120 706 1200 705.2C1280 704.3 1360 710.7 1440 727.3C1520 744 1600 771 1680 784.5C1760 798 1840 798 1880 798L1920 798L1920 1081L1880 1081C1840 1081 1760 1081 1680 1081C1600 1081 1520 1081 1440 1081C1360 1081 1280 1081 1200 1081C1120 1081 1040 1081 960 1081C880 1081 800 1081 720 1081C640 1081 560 1081 480 1081C400 1081 320 1081 240 1081C160 1081 80 1081 40 1081L0 1081Z" fill="#92dafe"></path><path d="M0 843L40 843.5C80 844 160 845 240 843.7C320 842.3 400 838.7 480 827.8C560 817 640 799 720 795.3C800 791.7 880 802.3 960 800.5C1040 798.7 1120 784.3 1200 792.8C1280 801.3 1360 832.7 1440 845.2C1520 857.7 1600 851.3 1680 845.3C1760 839.3 1840 833.7 1880 830.8L1920 828L1920 1081L1880 1081C1840 1081 1760 1081 1680 1081C1600 1081 1520 1081 1440 1081C1360 1081 1280 1081 1200 1081C1120 1081 1040 1081 960 1081C880 1081 800 1081 720 1081C640 1081 560 1081 480 1081C400 1081 320 1081 240 1081C160 1081 80 1081 40 1081L0 1081Z" fill="#65c0f9"></path><path d="M0 893L40 885.3C80 877.7 160 862.3 240 860.5C320 858.7 400 870.3 480 885.5C560 900.7 640 919.3 720 917C800 914.7 880 891.3 960 891.2C1040 891 1120 914 1200 913.3C1280 912.7 1360 888.3 1440 874.5C1520 860.7 1600 857.3 1680 860C1760 862.7 1840 871.3 1880 875.7L1920 880L1920 1081L1880 1081C1840 1081 1760 1081 1680 1081C1600 1081 1520 1081 1440 1081C1360 1081 1280 1081 1200 1081C1120 1081 1040 1081 960 1081C880 1081 800 1081 720 1081C640 1081 560 1081 480 1081C400 1081 320 1081 240 1081C160 1081 80 1081 40 1081L0 1081Z" fill="#3ca5f4"></path><path d="M0 960L40 958.3C80 956.7 160 953.3 240 958.3C320 963.3 400 976.7 480 983.3C560 990 640 990 720 980.8C800 971.7 880 953.3 960 949.8C1040 946.3 1120 957.7 1200 966.7C1280 975.7 1360 982.3 1440 978.3C1520 974.3 1600 959.7 1680 959C1760 958.3 1840 971.7 1880 978.3L1920 985L1920 1081L1880 1081C1840 1081 1760 1081 1680 1081C1600 1081 1520 1081 1440 1081C1360 1081 1280 1081 1200 1081C1120 1081 1040 1081 960 1081C880 1081 800 1081 720 1081C640 1081 560 1081 480 1081C400 1081 320 1081 240 1081C160 1081 80 1081 40 1081L0 1081Z" fill="#2489ec"></path></svg>