<svg id="visual" viewBox="0 0 1920 1080" width="1920" height="1080" xmlns="http://www.w3.org/2000/svg" xmlns:xlink="http://www.w3.org/1999/xlink" version="1.1"><path d="M0 271L175 195L349 174L524 109L698 217L873 239L1047 109L1222 228L1396 163L1571 98L1745 98L1920 195L1920 0L1745 0L1571 0L1396 0L1222 0L1047 0L873 0L698 0L524 0L349 0L175 0L0 0Z" fill="#00cc8e"></path><path d="M0 422L175 465L349 476L524 552L698 552L873 401L1047 584L1222 552L1396 671L1571 390L1745 390L1920 649L1920 193L1745 96L1571 96L1396 161L1222 226L1047 107L873 237L698 215L524 107L349 172L175 193L0 269Z" fill="#00b98a"></path><path d="M0 519L175 595L349 617L524 681L698 671L873 617L1047 757L1222 714L1396 779L1571 617L1745 519L1920 768L1920 647L1745 388L1571 388L1396 669L1222 550L1047 582L873 399L698 550L524 550L349 474L175 463L0 420Z" fill="#00a784"></path><path d="M0 984L175 1005L349 941L524 973L698 930L873 941L1047 962L1222 941L1396 973L1571 951L1745 919L1920 962L1920 766L1745 517L1571 615L1396 777L1222 712L1047 755L873 615L698 669L524 679L349 615L175 593L0 517Z" fill="#00957c"></path><path d="M0 1081L175 1081L349 1081L524 1081L698 1081L873 1081L1047 1081L1222 1081L1396 1081L1571 1081L1745 1081L1920 1081L1920 960L1745 917L1571 949L1396 971L1222 939L1047 960L873 939L698 928L524 971L349 939L175 1003L0 982Z" fill="#038373"></path></svg>