<svg id="visual" viewBox="0 0 1920 1080" width="1920" height="1080" xmlns="http://www.w3.org/2000/svg" xmlns:xlink="http://www.w3.org/1999/xlink" version="1.1"><rect x="0" y="0" width="1920" height="1080" fill="#001220"></rect><path d="M0 631L45.7 643.8C91.3 656.7 182.7 682.3 274.2 711.5C365.7 740.7 457.3 773.3 548.8 785.2C640.3 797 731.7 788 823 760C914.3 732 1005.7 685 1097 678.2C1188.3 671.3 1279.7 704.7 1371.2 725C1462.7 745.3 1554.3 752.7 1645.8 744C1737.3 735.3 1828.7 710.7 1874.3 698.3L1920 686L1920 1081L1874.3 1081C1828.7 1081 1737.3 1081 1645.8 1081C1554.3 1081 1462.7 1081 1371.2 1081C1279.7 1081 1188.3 1081 1097 1081C1005.7 1081 914.3 1081 823 1081C731.7 1081 640.3 1081 548.8 1081C457.3 1081 365.7 1081 274.2 1081C182.7 1081 91.3 1081 45.7 1081L0 1081Z" fill="#fa7268"></path><path d="M0 862L45.7 850.8C91.3 839.7 182.7 817.3 274.2 799.8C365.7 782.3 457.3 769.7 548.8 780.7C640.3 791.7 731.7 826.3 823 821.8C914.3 817.3 1005.7 773.7 1097 773.5C1188.3 773.3 1279.7 816.7 1371.2 835.2C1462.7 853.7 1554.3 847.3 1645.8 832.8C1737.3 818.3 1828.7 795.7 1874.3 784.3L1920 773L1920 1081L1874.3 1081C1828.7 1081 1737.3 1081 1645.8 1081C1554.3 1081 1462.7 1081 1371.2 1081C1279.7 1081 1188.3 1081 1097 1081C1005.7 1081 914.3 1081 823 1081C731.7 1081 640.3 1081 548.8 1081C457.3 1081 365.7 1081 274.2 1081C182.7 1081 91.3 1081 45.7 1081L0 1081Z" fill="#ef5f67"></path><path d="M0 806L45.7 820.3C91.3 834.7 182.7 863.3 274.2 863.8C365.7 864.3 457.3 836.7 548.8 820.3C640.3 804 731.7 799 823 797.8C914.3 796.7 1005.7 799.3 1097 809.2C1188.3 819 1279.7 836 1371.2 852C1462.7 868 1554.3 883 1645.8 882.8C1737.3 882.7 1828.7 867.3 1874.3 859.7L1920 852L1920 1081L1874.3 1081C1828.7 1081 1737.3 1081 1645.8 1081C1554.3 1081 1462.7 1081 1371.2 1081C1279.7 1081 1188.3 1081 1097 1081C1005.7 1081 914.3 1081 823 1081C731.7 1081 640.3 1081 548.8 1081C457.3 1081 365.7 1081 274.2 1081C182.7 1081 91.3 1081 45.7 1081L0 1081Z" fill="#e34c67"></path><path d="M0 976L45.7 957.7C91.3 939.3 182.7 902.7 274.2 887.2C365.7 871.7 457.3 877.3 548.8 880C640.3 882.7 731.7 882.3 823 884.2C914.3 886 1005.7 890 1097 900C1188.3 910 1279.7 926 1371.2 938.7C1462.7 951.3 1554.3 960.7 1645.8 953.7C1737.3 946.7 1828.7 923.3 1874.3 911.7L1920 900L1920 1081L1874.3 1081C1828.7 1081 1737.3 1081 1645.8 1081C1554.3 1081 1462.7 1081 1371.2 1081C1279.7 1081 1188.3 1081 1097 1081C1005.7 1081 914.3 1081 823 1081C731.7 1081 640.3 1081 548.8 1081C457.3 1081 365.7 1081 274.2 1081C182.7 1081 91.3 1081 45.7 1081L0 1081Z" fill="#d53867"></path><path d="M0 1030L45.7 1021.3C91.3 1012.7 182.7 995.3 274.2 994.7C365.7 994 457.3 1010 548.8 1004.5C640.3 999 731.7 972 823 964.2C914.3 956.3 1005.7 967.7 1097 974.8C1188.3 982 1279.7 985 1371.2 987.5C1462.7 990 1554.3 992 1645.8 989.7C1737.3 987.3 1828.7 980.7 1874.3 977.3L1920 974L1920 1081L1874.3 1081C1828.7 1081 1737.3 1081 1645.8 1081C1554.3 1081 1462.7 1081 1371.2 1081C1279.7 1081 1188.3 1081 1097 1081C1005.7 1081 914.3 1081 823 1081C731.7 1081 640.3 1081 548.8 1081C457.3 1081 365.7 1081 274.2 1081C182.7 1081 91.3 1081 45.7 1081L0 1081Z" fill="#c62368"></path></svg>